<svg width="285.095" height="16.967" viewBox="0 0 285.095 16.967" xmlns="http://www.w3.org/2000/svg"><g id="svgGroup" stroke-linecap="round" fill-rule="evenodd" font-size="9pt" stroke="#000000" stroke-width="0.25mm" fill="#000000" style="stroke:#000000;stroke-width:0.25mm;fill:#000000"><path d="M 96.976 14.117 L 96.976 11.21 L 97.755 11.21 A 16.467 16.467 0 0 0 98.005 11.208 Q 98.356 11.203 98.563 11.182 Q 98.734 11.164 98.851 11.113 A 0.479 0.479 0 0 0 98.971 11.039 A 0.516 0.516 0 0 0 99.104 10.859 A 0.732 0.732 0 0 0 99.151 10.716 A 1.467 1.467 0 0 0 99.176 10.575 Q 99.193 10.432 99.198 10.234 A 5.943 5.943 0 0 0 99.199 10.108 A 5.906 5.906 0 0 0 99.195 9.889 Q 99.188 9.692 99.166 9.557 A 1.236 1.236 0 0 0 99.151 9.481 A 0.724 0.724 0 0 0 99.1 9.33 A 0.513 0.513 0 0 0 98.971 9.158 A 0.491 0.491 0 0 0 98.822 9.079 Q 98.511 8.968 97.755 8.968 L 96.976 8.968 L 96.976 6.061 L 97.641 6.061 A 16.467 16.467 0 0 0 97.891 6.059 Q 98.242 6.054 98.449 6.032 Q 98.62 6.015 98.737 5.964 A 0.479 0.479 0 0 0 98.857 5.89 Q 98.99 5.776 99.038 5.576 Q 99.085 5.377 99.085 5.016 A 4.938 4.938 0 0 0 99.081 4.817 Q 99.073 4.624 99.049 4.493 A 1.118 1.118 0 0 0 99.038 4.436 A 0.678 0.678 0 0 0 98.98 4.278 A 0.52 0.52 0 0 0 98.857 4.123 Q 98.724 4.009 98.449 3.98 A 3.866 3.866 0 0 0 98.295 3.968 Q 98.12 3.957 97.876 3.954 A 16.667 16.667 0 0 0 97.641 3.952 L 96.976 3.952 L 96.976 1.045 L 99.142 1.045 A 6.455 6.455 0 0 1 100.582 1.191 Q 102.568 1.647 102.896 3.531 A 4.673 4.673 0 0 1 102.961 4.332 Q 102.961 5.719 102.42 6.422 Q 101.878 7.125 100.7 7.41 L 100.7 7.486 A 5.463 5.463 0 0 1 101.371 7.684 Q 101.709 7.809 101.97 7.969 A 2.134 2.134 0 0 1 102.467 8.379 A 2.211 2.211 0 0 1 102.849 9.065 Q 103.072 9.685 103.075 10.593 A 7.564 7.564 0 0 1 103.075 10.621 A 5.218 5.218 0 0 1 102.985 11.622 Q 102.873 12.195 102.621 12.636 A 2.588 2.588 0 0 1 102.144 13.243 A 2.779 2.779 0 0 1 101.203 13.809 Q 100.379 14.117 99.161 14.117 L 96.976 14.117 Z M 54.948 14.117 L 53.276 9.671 L 52.516 9.671 L 52.516 6.764 L 53.162 6.764 Q 53.646 6.764 53.938 6.732 A 2.616 2.616 0 0 0 54.055 6.716 A 1.478 1.478 0 0 0 54.248 6.674 Q 54.418 6.623 54.53 6.536 Q 54.682 6.403 54.739 6.137 A 1.965 1.965 0 0 0 54.768 5.957 Q 54.796 5.719 54.796 5.358 A 7.452 7.452 0 0 0 54.791 5.074 Q 54.781 4.809 54.75 4.629 A 1.716 1.716 0 0 0 54.739 4.569 A 1.054 1.054 0 0 0 54.691 4.404 Q 54.657 4.315 54.609 4.248 A 0.515 0.515 0 0 0 54.53 4.161 A 0.592 0.592 0 0 0 54.376 4.066 Q 54.304 4.034 54.214 4.013 A 1.344 1.344 0 0 0 54.083 3.99 Q 53.86 3.961 53.444 3.954 A 16.965 16.965 0 0 0 53.162 3.952 L 52.516 3.952 L 52.516 1.045 L 54.473 1.045 A 11.397 11.397 0 0 1 55.266 1.071 Q 55.675 1.1 56.023 1.16 A 4.778 4.778 0 0 1 56.658 1.311 A 3.299 3.299 0 0 1 57.29 1.583 A 2.358 2.358 0 0 1 57.95 2.128 A 2.571 2.571 0 0 1 58.38 2.908 A 3.347 3.347 0 0 1 58.511 3.401 Q 58.653 4.161 58.653 5.358 Q 58.653 6.778 58.41 7.6 A 3.386 3.386 0 0 1 58.368 7.733 A 2.685 2.685 0 0 1 57.806 8.652 A 2.544 2.544 0 0 1 56.962 9.234 L 58.938 14.117 L 54.948 14.117 Z M 20.881 14.117 L 20.216 11.799 L 17.043 11.799 L 17.841 8.873 L 19.361 8.873 L 17.119 1.045 L 20.596 1.045 L 24.757 14.117 L 20.881 14.117 Z M 72.998 14.117 L 72.998 9.082 L 70.262 9.082 L 70.262 6.042 L 72.998 6.042 L 72.998 1.045 L 76.798 1.045 L 76.798 14.117 L 72.998 14.117 Z M 7.543 14.117 L 4.598 9.538 L 4.598 5.453 L 7.6 1.045 L 11.742 1.045 L 7.239 7.201 L 11.799 14.117 L 7.543 14.117 Z M 126.787 14.117 L 126.787 11.21 L 126.939 11.21 Q 127.63 11.21 128.023 11.163 A 2.52 2.52 0 0 0 128.26 11.124 A 0.943 0.943 0 0 0 128.569 11 A 0.831 0.831 0 0 0 128.839 10.716 Q 129.025 10.411 129.061 9.79 A 5.027 5.027 0 0 0 129.067 9.633 Q 129.105 8.683 129.105 7.581 Q 129.105 6.498 129.067 5.51 Q 129.034 4.872 128.882 4.53 A 1.06 1.06 0 0 0 128.829 4.427 A 0.835 0.835 0 0 0 128.314 4.037 A 1.189 1.189 0 0 0 128.193 4.009 A 5.219 5.219 0 0 0 127.9 3.98 Q 127.513 3.952 126.939 3.952 L 126.787 3.952 L 126.787 1.045 L 126.939 1.045 A 28.767 28.767 0 0 1 127.987 1.063 Q 128.832 1.094 129.475 1.178 A 8.903 8.903 0 0 1 130.188 1.299 Q 130.534 1.373 130.826 1.471 A 4.277 4.277 0 0 1 131.157 1.596 Q 131.803 1.881 132.183 2.375 A 2.779 2.779 0 0 1 132.544 3.009 A 3.797 3.797 0 0 1 132.734 3.61 A 7.318 7.318 0 0 1 132.847 4.237 Q 132.892 4.562 132.918 4.928 A 13.24 13.24 0 0 1 132.934 5.178 A 26.219 26.219 0 0 1 132.954 5.666 Q 132.973 6.209 132.978 6.91 A 82.131 82.131 0 0 1 132.981 7.581 A 82.934 82.934 0 0 1 132.978 8.302 Q 132.972 9.005 132.953 9.541 A 25.043 25.043 0 0 1 132.934 9.994 A 11.623 11.623 0 0 1 132.872 10.732 Q 132.833 11.066 132.775 11.36 A 6.481 6.481 0 0 1 132.734 11.552 A 3.776 3.776 0 0 1 132.536 12.173 A 2.767 2.767 0 0 1 132.183 12.787 A 2.442 2.442 0 0 1 131.481 13.4 A 3.066 3.066 0 0 1 131.157 13.566 A 4.692 4.692 0 0 1 130.562 13.772 Q 130.261 13.855 129.912 13.917 A 9.602 9.602 0 0 1 129.475 13.984 Q 128.459 14.117 126.939 14.117 L 126.787 14.117 Z M 79.211 8.151 L 79.211 1.045 L 83.011 1.045 L 83.011 8.911 Q 83.011 9.614 83.049 10.26 Q 83.081 10.689 83.179 10.919 A 0.743 0.743 0 0 0 83.22 11.001 A 0.549 0.549 0 0 0 83.484 11.23 A 0.852 0.852 0 0 0 83.676 11.286 A 1.618 1.618 0 0 0 83.857 11.322 Q 84.046 11.349 84.32 11.358 A 8.529 8.529 0 0 0 84.588 11.362 L 85.025 11.362 Q 85.166 11.362 85.34 11.329 A 2.458 2.458 0 0 0 85.367 11.324 L 85.367 14.25 A 1.457 1.457 0 0 1 85.278 14.26 Q 85.161 14.269 84.987 14.269 L 84.588 14.269 A 19.958 19.958 0 0 1 83.484 14.241 Q 82.421 14.181 81.705 14 A 4.898 4.898 0 0 1 81.51 13.946 Q 80.427 13.623 79.914 12.901 A 3.001 3.001 0 0 1 79.511 12.093 Q 79.395 11.741 79.34 11.329 A 5.204 5.204 0 0 1 79.325 11.21 Q 79.211 10.184 79.211 8.151 Z M 183.084 14.117 L 183.084 0 L 186.599 0 L 186.599 14.117 L 183.084 14.117 Z M 274.151 14.117 L 274.151 0 L 277.666 0 L 277.666 14.117 L 274.151 14.117 Z M 268.508 14.117 L 268.508 8.113 Q 268.508 7.619 268.47 7.41 A 0.427 0.427 0 0 0 268.403 7.242 Q 268.344 7.157 268.242 7.106 A 0.602 0.602 0 0 0 268.137 7.062 Q 267.961 7.004 267.628 6.976 A 5.426 5.426 0 0 0 267.596 6.973 A 5.038 5.038 0 0 0 267.439 6.966 Q 267.103 6.954 266.361 6.954 A 19.316 19.316 0 0 0 265.377 6.978 A 15.348 15.348 0 0 0 264.67 7.03 L 263.663 7.087 L 263.663 4.617 Q 265.449 4.275 267.52 4.275 A 18.096 18.096 0 0 1 268.448 4.297 Q 269.297 4.341 269.884 4.471 A 4.762 4.762 0 0 1 270.019 4.503 A 3.853 3.853 0 0 1 270.586 4.691 Q 270.886 4.819 271.114 4.989 A 1.918 1.918 0 0 1 271.377 5.225 A 2.139 2.139 0 0 1 271.782 5.93 A 2.837 2.837 0 0 1 271.899 6.384 A 6.497 6.497 0 0 1 271.965 6.877 Q 272.023 7.479 272.023 8.341 L 272.023 14.117 L 268.508 14.117 Z M 0 14.117 L 0 1.045 L 3.8 1.045 L 3.8 14.117 L 0 14.117 Z M 36.214 14.117 L 36.214 1.045 L 40.014 1.045 L 40.014 14.117 L 36.214 14.117 Z M 47.918 14.117 L 47.918 1.045 L 51.718 1.045 L 51.718 14.117 L 47.918 14.117 Z M 65.664 14.117 L 65.664 1.045 L 69.464 1.045 L 69.464 14.117 L 65.664 14.117 Z M 92.378 14.117 L 92.378 1.045 L 96.178 1.045 L 96.178 14.117 L 92.378 14.117 Z M 122.189 14.117 L 122.189 1.045 L 125.989 1.045 L 125.989 14.117 L 122.189 14.117 Z M 214.966 4.313 L 214.966 10.051 A 11.7 11.7 0 0 0 214.97 10.351 Q 214.977 10.63 214.998 10.814 A 1.856 1.856 0 0 0 215.023 10.972 A 0.723 0.723 0 0 0 215.093 11.169 A 0.562 0.562 0 0 0 215.289 11.381 Q 215.502 11.523 215.93 11.549 A 3.01 3.01 0 0 0 215.992 11.552 A 19.446 19.446 0 0 0 216.782 11.585 A 23.119 23.119 0 0 0 217.284 11.59 A 41.901 41.901 0 0 0 217.85 11.586 Q 218.638 11.576 219.051 11.533 L 220.02 11.457 L 220.02 13.908 Q 219.26 14.136 217.93 14.212 A 13.195 13.195 0 0 1 217.413 14.247 Q 217.128 14.261 216.807 14.266 A 24.415 24.415 0 0 1 216.41 14.269 Q 214.768 14.269 213.788 14.009 A 4.619 4.619 0 0 1 213.664 13.975 A 3.691 3.691 0 0 1 212.987 13.704 Q 212.584 13.492 212.307 13.192 A 2.178 2.178 0 0 1 212.173 13.034 A 2.776 2.776 0 0 1 211.745 12.214 A 3.708 3.708 0 0 1 211.603 11.618 A 8.724 8.724 0 0 1 211.533 11.028 Q 211.47 10.31 211.47 9.291 A 32.276 32.276 0 0 1 211.479 8.491 Q 211.498 7.725 211.557 7.19 A 8.659 8.659 0 0 1 211.565 7.115 A 4.747 4.747 0 0 1 211.688 6.454 Q 211.78 6.108 211.922 5.819 A 2.871 2.871 0 0 1 211.964 5.738 A 2.254 2.254 0 0 1 212.764 4.901 A 2.861 2.861 0 0 1 213.019 4.76 A 3.5 3.5 0 0 1 213.598 4.54 Q 214.175 4.374 214.966 4.313 Z M 86.165 14.212 L 86.165 1.045 L 89.965 1.045 L 89.965 8.151 A 75.412 75.412 0 0 1 89.96 9.025 Q 89.946 10.25 89.889 10.963 A 5.248 5.248 0 0 1 89.783 11.685 Q 89.674 12.175 89.471 12.559 Q 89.091 13.3 88.312 13.699 A 3.762 3.762 0 0 1 87.676 13.949 Q 87.339 14.05 86.933 14.118 A 9.37 9.37 0 0 1 86.165 14.212 Z M 11.78 14.117 L 15.941 1.045 L 16.264 1.045 L 17.765 6.251 L 15.58 14.117 L 11.78 14.117 Z M 145.065 14.25 L 145.065 11.172 A 1.332 1.332 0 0 0 145.06 11.057 Q 145.045 10.875 144.974 10.814 A 0.135 0.135 0 0 0 144.97 10.811 Q 144.878 10.738 144.591 10.7 A 2.856 2.856 0 0 0 144.571 10.697 L 142.519 10.412 Q 141.972 10.33 141.578 10.179 A 2.551 2.551 0 0 1 141.293 10.051 A 1.789 1.789 0 0 1 140.866 9.74 A 1.534 1.534 0 0 1 140.6 9.386 Q 140.372 9.025 140.296 8.512 A 6.162 6.162 0 0 1 140.25 8.093 Q 140.232 7.868 140.225 7.609 A 13.393 13.393 0 0 1 140.22 7.239 A 4.127 4.127 0 0 1 140.302 6.388 Q 140.496 5.467 141.151 4.959 A 2.766 2.766 0 0 1 141.831 4.604 Q 142.488 4.362 143.445 4.298 A 9.431 9.431 0 0 1 143.507 4.294 L 143.507 7.277 A 1.683 1.683 0 0 0 143.511 7.392 Q 143.523 7.571 143.577 7.64 A 0.146 0.146 0 0 0 143.583 7.648 Q 143.648 7.721 143.953 7.773 A 3.71 3.71 0 0 0 144.058 7.79 L 146.338 8.094 A 4.195 4.195 0 0 1 146.745 8.16 Q 146.944 8.203 147.115 8.264 A 2.437 2.437 0 0 1 147.193 8.294 Q 147.554 8.436 147.801 8.721 Q 148.248 9.214 148.332 10.444 A 8.983 8.983 0 0 1 148.352 11.058 Q 148.352 12.097 148.05 12.779 A 2.095 2.095 0 0 1 147.421 13.604 A 2.815 2.815 0 0 1 146.638 14.004 Q 146.267 14.13 145.816 14.192 A 6.733 6.733 0 0 1 145.065 14.25 Z M 153.387 4.313 L 153.387 9.272 Q 153.387 9.949 153.418 10.352 A 4.888 4.888 0 0 0 153.435 10.526 Q 153.482 10.944 153.634 11.172 A 0.864 0.864 0 0 0 153.966 11.437 A 1.141 1.141 0 0 0 154.119 11.495 A 1.741 1.741 0 0 0 154.341 11.545 Q 154.616 11.59 155.021 11.59 A 28.081 28.081 0 0 0 155.472 11.587 Q 156.12 11.576 156.408 11.533 L 157.054 11.457 L 157.054 13.927 Q 155.648 14.269 154.052 14.269 A 9.893 9.893 0 0 1 153.145 14.23 Q 152.283 14.151 151.696 13.908 A 3.028 3.028 0 0 1 151.008 13.519 A 2.368 2.368 0 0 1 150.404 12.844 A 3.263 3.263 0 0 1 150.012 11.912 A 4.118 4.118 0 0 1 149.919 11.419 Q 149.815 10.602 149.815 9.291 A 25.048 25.048 0 0 1 149.827 8.482 Q 149.849 7.807 149.91 7.296 A 4.824 4.824 0 0 1 150.064 6.524 A 3.74 3.74 0 0 1 150.309 5.89 Q 150.67 5.187 151.401 4.797 A 3.417 3.417 0 0 1 152.024 4.547 Q 152.349 4.449 152.738 4.387 A 8.041 8.041 0 0 1 153.387 4.313 Z M 182.286 4.807 L 182.286 7.22 L 182.077 7.22 A 5.892 5.892 0 0 0 181.883 7.223 Q 181.614 7.232 181.478 7.267 A 0.429 0.429 0 0 0 181.209 7.475 A 0.558 0.558 0 0 0 181.203 7.486 A 0.951 0.951 0 0 0 181.151 7.635 Q 181.102 7.82 181.089 8.094 Q 181.07 8.379 181.07 9.272 A 66.443 66.443 0 0 0 181.071 9.634 Q 181.074 10.227 181.089 10.45 Q 181.106 10.801 181.181 10.998 A 0.713 0.713 0 0 0 181.203 11.048 Q 181.298 11.248 181.507 11.286 A 3.765 3.765 0 0 0 181.854 11.319 A 4.534 4.534 0 0 0 182.077 11.324 L 182.286 11.324 L 182.286 13.737 Q 181.906 14.022 181.44 14.136 A 3.683 3.683 0 0 1 181.002 14.214 Q 180.701 14.25 180.348 14.25 A 3.91 3.91 0 0 1 179.746 14.206 Q 179.36 14.146 179.046 14.003 A 1.887 1.887 0 0 1 178.234 13.289 A 2.32 2.32 0 0 1 178.182 13.205 Q 177.821 12.635 177.659 11.685 Q 177.542 10.995 177.51 10.054 A 21.862 21.862 0 0 1 177.498 9.31 A 18.069 18.069 0 0 1 177.541 8.018 Q 177.669 6.237 178.182 5.396 A 2.14 2.14 0 0 1 179.725 4.347 A 3.492 3.492 0 0 1 180.348 4.294 Q 181.032 4.294 181.469 4.398 A 2.034 2.034 0 0 1 182.187 4.732 A 2.399 2.399 0 0 1 182.286 4.807 Z M 24.111 4.085 L 24.111 1.045 L 34.808 1.045 L 34.808 4.085 L 24.111 4.085 Z M 200.374 4.085 L 200.374 1.045 L 211.071 1.045 L 211.071 4.085 L 200.374 4.085 Z M 257.868 14.117 L 257.868 9.538 A 84.539 84.539 0 0 0 257.867 9.13 Q 257.864 8.46 257.849 8.208 A 10.113 10.113 0 0 0 257.831 7.993 Q 257.799 7.639 257.754 7.505 A 0.421 0.421 0 0 0 257.675 7.376 A 0.367 0.367 0 0 0 257.488 7.268 A 1.142 1.142 0 0 0 257.367 7.245 Q 257.184 7.22 256.88 7.22 L 256.69 7.22 L 256.69 4.845 A 2.655 2.655 0 0 1 257.637 4.407 Q 258.001 4.315 258.428 4.298 A 4.956 4.956 0 0 1 258.628 4.294 Q 259.608 4.294 260.22 4.637 A 1.813 1.813 0 0 1 260.927 5.339 A 2.599 2.599 0 0 1 261.156 5.862 Q 261.242 6.133 261.288 6.45 Q 261.383 7.106 261.383 8.056 L 261.383 14.117 L 257.868 14.117 Z M 241.015 14.117 L 241.015 8.208 Q 241.015 7.786 240.934 7.543 A 0.916 0.916 0 0 0 240.92 7.505 A 0.503 0.503 0 0 0 240.861 7.396 A 0.332 0.332 0 0 0 240.683 7.267 A 0.787 0.787 0 0 0 240.587 7.247 Q 240.425 7.221 240.135 7.22 A 6.563 6.563 0 0 0 240.122 7.22 L 240.027 7.22 Q 239.989 6.726 239.913 6.194 A 9.738 9.738 0 0 0 239.836 5.84 Q 239.751 5.485 239.66 5.252 A 1.909 1.909 0 0 0 239.59 5.092 A 2.585 2.585 0 0 1 240.737 4.437 Q 241.242 4.294 241.87 4.294 A 3.886 3.886 0 0 1 242.656 4.368 Q 243.641 4.572 244.074 5.339 A 2.599 2.599 0 0 1 244.303 5.862 Q 244.389 6.133 244.435 6.45 Q 244.53 7.106 244.53 8.056 L 244.53 14.117 L 241.015 14.117 Z M 193.857 8.132 L 193.857 0 L 199.348 0 L 199.348 2.147 L 197.087 2.223 L 197.087 8.132 L 193.857 8.132 Z M 281.865 8.132 L 281.865 2.223 L 279.604 2.147 L 279.604 0 L 285.095 0 L 285.095 8.132 L 281.865 8.132 Z M 193.857 16.967 L 193.857 8.892 L 197.087 8.892 L 197.087 14.744 L 199.348 14.82 L 199.348 16.967 L 193.857 16.967 Z M 279.604 16.967 L 279.604 14.82 L 281.865 14.744 L 281.865 8.892 L 285.095 8.892 L 285.095 16.967 L 279.604 16.967 Z M 235.714 14.117 L 235.714 8.208 Q 235.714 7.786 235.633 7.543 A 0.916 0.916 0 0 0 235.619 7.505 A 0.503 0.503 0 0 0 235.56 7.396 A 0.332 0.332 0 0 0 235.382 7.267 A 0.787 0.787 0 0 0 235.286 7.247 Q 235.124 7.221 234.834 7.22 A 6.563 6.563 0 0 0 234.821 7.22 L 234.726 7.22 L 234.726 4.845 A 2.535 2.535 0 0 1 235.515 4.459 Q 235.856 4.356 236.264 4.317 A 5.458 5.458 0 0 1 236.778 4.294 Q 237.315 4.294 237.726 4.413 A 2.383 2.383 0 0 1 237.804 4.436 Q 238.241 4.579 238.545 4.94 Q 239.097 5.615 239.204 7.233 A 12.598 12.598 0 0 1 239.229 8.056 L 239.229 14.117 L 235.714 14.117 Z M 164.35 14.231 L 164.35 9.291 A 78.634 78.634 0 0 0 164.349 8.898 Q 164.346 8.251 164.331 7.999 A 3.942 3.942 0 0 0 164.313 7.748 Q 164.284 7.472 164.217 7.305 A 0.6 0.6 0 0 0 164.14 7.166 A 0.415 0.415 0 0 0 163.913 7.011 A 1.529 1.529 0 0 0 163.754 6.981 Q 163.56 6.954 163.286 6.954 L 163.02 6.954 L 163.02 4.275 L 163.286 4.275 A 17.244 17.244 0 0 1 164.246 4.3 Q 165.125 4.349 165.731 4.496 A 4.557 4.557 0 0 1 165.87 4.531 A 3.416 3.416 0 0 1 166.478 4.759 Q 166.835 4.936 167.088 5.186 A 1.949 1.949 0 0 1 167.257 5.377 A 2.36 2.36 0 0 1 167.601 5.995 Q 167.737 6.35 167.799 6.792 A 10.013 10.013 0 0 1 167.862 7.399 Q 167.922 8.168 167.922 9.291 Q 167.922 10.528 167.864 11.307 A 10.946 10.946 0 0 1 167.837 11.619 A 4.322 4.322 0 0 1 167.739 12.197 Q 167.664 12.505 167.545 12.758 A 2.323 2.323 0 0 1 167.428 12.977 A 2.098 2.098 0 0 1 166.644 13.718 A 2.719 2.719 0 0 1 166.345 13.861 A 3.919 3.919 0 0 1 165.784 14.037 Q 165.186 14.181 164.35 14.231 Z M 162.222 4.313 L 162.222 9.291 A 78.082 78.082 0 0 0 162.223 9.683 Q 162.226 10.327 162.241 10.564 Q 162.26 11.02 162.355 11.248 A 0.518 0.518 0 0 0 162.452 11.403 A 0.449 0.449 0 0 0 162.678 11.533 A 0.979 0.979 0 0 0 162.801 11.56 Q 162.984 11.59 163.286 11.59 L 163.552 11.59 L 163.552 14.269 L 163.286 14.269 A 17.918 17.918 0 0 1 162.329 14.245 Q 161.448 14.198 160.841 14.057 A 4.701 4.701 0 0 1 160.702 14.022 A 3.352 3.352 0 0 1 160.094 13.8 Q 159.733 13.624 159.479 13.371 A 1.924 1.924 0 0 1 159.315 13.186 Q 158.939 12.708 158.802 11.954 A 4.362 4.362 0 0 1 158.774 11.78 A 9.691 9.691 0 0 1 158.711 11.196 Q 158.664 10.607 158.653 9.803 A 37.614 37.614 0 0 1 158.65 9.291 A 39.057 39.057 0 0 1 158.656 8.59 Q 158.674 7.6 158.745 6.973 Q 158.826 6.262 159.072 5.757 A 2.512 2.512 0 0 1 159.163 5.586 A 1.993 1.993 0 0 1 159.98 4.799 A 2.595 2.595 0 0 1 160.227 4.683 A 3.919 3.919 0 0 1 160.788 4.507 Q 161.386 4.363 162.222 4.313 Z M 134.957 14.117 L 134.957 4.427 L 138.472 4.427 L 138.472 14.117 L 134.957 14.117 Z M 169.803 14.117 L 169.803 4.427 L 173.318 4.427 L 173.318 14.117 L 169.803 14.117 Z M 222.338 14.117 L 222.338 4.427 L 225.853 4.427 L 225.853 14.117 L 222.338 14.117 Z M 230.413 14.117 L 230.413 4.427 L 233.928 4.427 L 233.928 14.117 L 230.413 14.117 Z M 246.696 14.117 L 246.696 4.427 L 250.211 4.427 L 250.211 14.117 L 246.696 14.117 Z M 252.377 14.117 L 252.377 4.427 L 255.892 4.427 L 255.892 14.117 L 252.377 14.117 Z M 27.55 14.117 L 27.55 4.845 L 31.35 4.845 L 31.35 14.117 L 27.55 14.117 Z M 203.813 14.117 L 203.813 4.845 L 207.613 4.845 L 207.613 14.117 L 203.813 14.117 Z M 215.764 10.051 L 215.764 8.322 L 217.094 8.322 Q 217.094 7.358 216.922 7.018 A 0.549 0.549 0 0 0 216.885 6.954 A 0.533 0.533 0 0 0 216.742 6.807 A 0.498 0.498 0 0 0 216.581 6.735 A 1.225 1.225 0 0 0 216.453 6.711 Q 216.284 6.688 216.03 6.688 L 215.764 6.688 L 215.764 4.275 L 216.03 4.275 Q 217.522 4.275 218.388 4.497 A 3.955 3.955 0 0 1 218.547 4.541 Q 219.379 4.791 219.798 5.345 A 1.884 1.884 0 0 1 219.849 5.415 Q 220.201 5.907 220.3 6.66 A 4.206 4.206 0 0 1 220.314 6.783 Q 220.38 7.423 220.395 8.553 A 54.513 54.513 0 0 1 220.4 9.291 L 220.4 10.051 L 215.764 10.051 Z M 266.114 8.322 L 267.71 8.36 L 267.71 10.051 L 267.52 10.051 A 15.828 15.828 0 0 0 267.343 10.052 Q 267.054 10.055 266.95 10.07 Q 266.57 10.089 266.551 10.431 A 0.828 0.828 0 0 0 266.544 10.493 Q 266.532 10.624 266.532 10.906 A 4.757 4.757 0 0 0 266.534 11.04 Q 266.538 11.185 266.551 11.285 A 1.12 1.12 0 0 0 266.56 11.343 Q 266.589 11.495 266.665 11.59 A 0.353 0.353 0 0 0 266.866 11.727 A 0.512 0.512 0 0 0 266.95 11.742 A 3.765 3.765 0 0 0 267.297 11.775 A 4.534 4.534 0 0 0 267.52 11.78 L 267.71 11.78 L 267.71 13.718 A 2.392 2.392 0 0 1 267.183 14.031 A 2.07 2.07 0 0 1 266.826 14.145 Q 266.465 14.227 265.982 14.245 A 7.646 7.646 0 0 1 265.696 14.25 A 3.716 3.716 0 0 1 264.961 14.182 Q 264.541 14.097 264.221 13.907 A 1.852 1.852 0 0 1 263.758 13.519 A 2.289 2.289 0 0 1 263.341 12.768 Q 263.223 12.428 263.171 12.01 A 5.767 5.767 0 0 1 263.131 11.305 A 10.381 10.381 0 0 1 263.144 10.769 Q 263.158 10.496 263.188 10.263 A 4.138 4.138 0 0 1 263.264 9.832 A 2.291 2.291 0 0 1 263.402 9.42 Q 263.511 9.177 263.673 8.999 A 1.393 1.393 0 0 1 263.72 8.949 A 1.552 1.552 0 0 1 264.169 8.624 Q 264.356 8.532 264.583 8.472 A 2.687 2.687 0 0 1 264.613 8.465 Q 265.183 8.322 266.114 8.322 Z M 109.706 10.127 L 109.706 7.296 L 115.121 7.296 L 115.121 10.127 L 109.706 10.127 Z M 40.812 3.952 L 40.812 1.045 L 45.638 1.045 L 45.638 3.952 L 40.812 3.952 Z M 40.812 14.117 L 40.812 11.21 L 45.638 11.21 L 45.638 14.117 L 40.812 14.117 Z M 40.812 8.968 L 40.812 6.061 L 44.745 6.061 L 44.745 8.968 L 40.812 8.968 Z M 141.607 14.079 L 140.524 13.908 L 140.524 11.476 Q 141.106 11.534 142 11.592 A 92.431 92.431 0 0 0 142.576 11.628 Q 143.298 11.666 143.602 11.666 L 144.267 11.666 L 144.267 14.269 Q 143.044 14.254 142.067 14.14 A 14.052 14.052 0 0 1 141.607 14.079 Z M 134.957 2.736 L 134.957 0 L 138.472 0 L 138.472 2.736 L 134.957 2.736 Z M 246.696 2.736 L 246.696 0 L 250.211 0 L 250.211 2.736 L 246.696 2.736 Z M 144.932 6.859 L 144.305 6.859 L 144.305 4.275 A 17.199 17.199 0 0 1 146.249 4.381 A 15.019 15.019 0 0 1 146.87 4.465 L 147.82 4.636 L 147.82 7.068 A 8.444 8.444 0 0 1 147.568 7.051 Q 147.306 7.029 146.951 6.987 A 30.478 30.478 0 0 1 146.832 6.973 Q 145.654 6.859 144.932 6.859 Z M 174.116 7.961 L 174.116 4.978 Q 174.515 4.598 175.056 4.436 Q 175.477 4.311 176.053 4.283 A 7.074 7.074 0 0 1 176.396 4.275 L 176.396 7.448 A 10.549 10.549 0 0 0 175.845 7.461 Q 175.585 7.475 175.362 7.503 A 4.374 4.374 0 0 0 174.999 7.562 Q 174.478 7.672 174.141 7.941 A 1.539 1.539 0 0 0 174.116 7.961 Z M 226.651 7.961 L 226.651 4.978 Q 227.05 4.598 227.591 4.436 Q 228.012 4.311 228.588 4.283 A 7.074 7.074 0 0 1 228.931 4.275 L 228.931 7.448 A 10.549 10.549 0 0 0 228.38 7.461 Q 228.12 7.475 227.897 7.503 A 4.374 4.374 0 0 0 227.534 7.562 Q 227.013 7.672 226.676 7.941 A 1.539 1.539 0 0 0 226.651 7.961 Z M 156.978 7.087 L 156.389 7.03 Q 155.992 6.967 155.304 6.956 A 18.644 18.644 0 0 0 155.021 6.954 Q 154.577 6.954 154.327 6.997 A 1.163 1.163 0 0 0 154.185 7.03 L 154.185 4.275 Q 155.534 4.294 156.978 4.617 L 156.978 7.087 Z" vector-effect="non-scaling-stroke"/></g></svg>
