<svg width="542.501" height="69.602" viewBox="0 0 542.501 69.602" xmlns="http://www.w3.org/2000/svg"><g id="svgGroup" stroke-linecap="round" fill-rule="evenodd" font-size="9pt" stroke="#ffffff" stroke-width="0.25mm" fill="#ffffff" style="stroke:#ffffff;stroke-width:0.25mm;fill:#ffffff"><path d="M 510.4 68.802 L 510.4 53.502 L 514.5 53.502 Q 516.644 53.502 517.996 53.414 A 19.963 19.963 0 0 0 518.75 53.352 A 6.518 6.518 0 0 0 519.545 53.223 Q 520.408 53.024 520.9 52.602 A 2.716 2.716 0 0 0 521.599 51.657 A 3.853 3.853 0 0 0 521.85 50.902 Q 522.1 49.802 522.1 47.702 Q 522.1 45.502 521.85 44.402 A 3.812 3.812 0 0 0 521.579 43.605 A 2.7 2.7 0 0 0 520.9 42.702 A 2.584 2.584 0 0 0 520.118 42.288 Q 518.481 41.702 514.5 41.702 L 510.4 41.702 L 510.4 26.402 L 513.9 26.402 Q 516.044 26.402 517.396 26.314 A 19.963 19.963 0 0 0 518.15 26.252 A 6.518 6.518 0 0 0 518.945 26.123 Q 519.808 25.924 520.3 25.502 Q 521 24.902 521.25 23.852 A 7.288 7.288 0 0 0 521.382 23.113 Q 521.5 22.208 521.5 20.902 Q 521.5 19.169 521.312 18.149 A 5.885 5.885 0 0 0 521.25 17.852 A 3.568 3.568 0 0 0 520.945 17.02 A 2.736 2.736 0 0 0 520.3 16.202 Q 519.801 15.775 518.922 15.576 A 6.563 6.563 0 0 0 518.15 15.452 Q 517.04 15.337 515.138 15.31 A 87.727 87.727 0 0 0 513.9 15.302 L 510.4 15.302 L 510.4 0.002 L 521.8 0.002 A 33.974 33.974 0 0 1 529.378 0.77 Q 541.9 3.647 541.9 17.302 A 29.937 29.937 0 0 1 541.649 21.319 Q 541.371 23.364 540.786 25.022 A 11.719 11.719 0 0 1 539.05 28.302 Q 536.645 31.424 531.856 32.98 A 25.16 25.16 0 0 1 530 33.502 L 530 33.902 A 28.753 28.753 0 0 1 533.533 34.943 Q 535.31 35.602 536.686 36.445 A 11.234 11.234 0 0 1 539.3 38.602 A 11.636 11.636 0 0 1 541.312 42.212 Q 542.482 45.477 542.5 50.255 A 39.69 39.69 0 0 1 542.5 50.402 Q 542.5 56.827 540.11 61.009 A 13.619 13.619 0 0 1 537.6 64.202 Q 532.744 68.761 522.094 68.802 A 50.335 50.335 0 0 1 521.9 68.802 L 510.4 68.802 Z M 289.2 68.802 L 280.4 45.402 L 276.4 45.402 L 276.4 30.102 L 279.8 30.102 Q 282.9 30.102 284.5 29.852 Q 285.665 29.67 286.459 29.249 A 3.701 3.701 0 0 0 287 28.902 Q 287.694 28.295 288.011 27.162 A 5.953 5.953 0 0 0 288.1 26.802 Q 288.4 25.402 288.4 22.702 A 39.222 39.222 0 0 0 288.374 21.209 Q 288.32 19.812 288.159 18.865 A 9.033 9.033 0 0 0 288.1 18.552 Q 287.8 17.102 287 16.402 Q 286.388 15.867 285.337 15.624 A 7.075 7.075 0 0 0 284.65 15.502 Q 283.472 15.35 281.285 15.314 A 89.294 89.294 0 0 0 279.8 15.302 L 276.4 15.302 L 276.4 0.002 L 286.7 0.002 A 59.982 59.982 0 0 1 290.874 0.139 Q 295.175 0.44 298.2 1.402 A 17.365 17.365 0 0 1 301.529 2.835 A 12.41 12.41 0 0 1 305 5.702 A 13.534 13.534 0 0 1 307.263 9.806 A 17.618 17.618 0 0 1 307.95 12.402 Q 308.454 15.09 308.619 18.815 A 87.918 87.918 0 0 1 308.7 22.702 Q 308.7 30.176 307.423 34.5 A 17.823 17.823 0 0 1 307.2 35.202 A 14.134 14.134 0 0 1 304.242 40.039 A 13.39 13.39 0 0 1 299.8 43.102 L 310.2 68.802 L 289.2 68.802 Z M 109.9 68.802 L 106.4 56.602 L 89.7 56.602 L 93.9 41.202 L 101.9 41.202 L 90.1 0.002 L 108.4 0.002 L 130.3 68.802 L 109.9 68.802 Z M 384.2 68.802 L 384.2 42.302 L 369.8 42.302 L 369.8 26.302 L 384.2 26.302 L 384.2 0.002 L 404.2 0.002 L 404.2 68.802 L 384.2 68.802 Z M 39.7 68.802 L 24.2 44.702 L 24.2 23.202 L 40 0.002 L 61.8 0.002 L 38.1 32.402 L 62.1 68.802 L 39.7 68.802 Z M 416.9 37.402 L 416.9 0.002 L 436.9 0.002 L 436.9 41.402 Q 436.9 45.102 437.1 48.502 A 19.129 19.129 0 0 0 437.247 49.867 Q 437.436 51.157 437.785 51.971 A 3.91 3.91 0 0 0 438 52.402 A 2.889 2.889 0 0 0 439.392 53.608 A 4.485 4.485 0 0 0 440.4 53.902 A 8.515 8.515 0 0 0 441.355 54.091 Q 442.349 54.236 443.79 54.281 A 44.889 44.889 0 0 0 445.2 54.302 L 447.5 54.302 A 7.626 7.626 0 0 0 448.294 54.258 Q 448.769 54.208 449.3 54.102 L 449.3 69.502 Q 448.715 69.586 447.712 69.599 A 30.081 30.081 0 0 1 447.3 69.602 L 445.2 69.602 A 105.041 105.041 0 0 1 439.389 69.452 Q 433.794 69.141 430.024 68.184 A 25.778 25.778 0 0 1 429 67.902 A 20.12 20.12 0 0 1 425.219 66.371 Q 422.9 65.125 421.344 63.344 A 11.934 11.934 0 0 1 420.6 62.402 Q 418.1 58.902 417.5 53.502 Q 416.9 48.102 416.9 37.402 Z M 0 68.802 L 0 0.002 L 20 0.002 L 20 68.802 L 0 68.802 Z M 190.6 68.802 L 190.6 0.002 L 210.6 0.002 L 210.6 68.802 L 190.6 68.802 Z M 252.2 68.802 L 252.2 0.002 L 272.2 0.002 L 272.2 68.802 L 252.2 68.802 Z M 345.6 68.802 L 345.6 0.002 L 365.6 0.002 L 365.6 68.802 L 345.6 68.802 Z M 486.2 68.802 L 486.2 0.002 L 506.2 0.002 L 506.2 68.802 L 486.2 68.802 Z M 453.5 69.302 L 453.5 0.002 L 473.5 0.002 L 473.5 37.402 Q 473.5 47.202 473.1 52.202 A 27.621 27.621 0 0 1 472.544 56.001 Q 471.969 58.583 470.9 60.602 A 13.618 13.618 0 0 1 464.832 66.586 A 16.518 16.518 0 0 1 464.8 66.602 A 19.799 19.799 0 0 1 461.453 67.918 Q 459.678 68.449 457.545 68.807 A 49.314 49.314 0 0 1 453.5 69.302 Z M 62 68.802 L 83.9 0.002 L 85.6 0.002 L 93.5 27.402 L 82 68.802 L 62 68.802 Z M 126.9 16.002 L 126.9 0.002 L 183.2 0.002 L 183.2 16.002 L 126.9 16.002 Z M 145 68.802 L 145 20.002 L 165 20.002 L 165 68.802 L 145 68.802 Z M 214.8 68.802 L 214.8 53.502 L 240.2 53.502 L 240.2 68.802 L 214.8 68.802 Z M 214.8 15.302 L 214.8 0.002 L 240.2 0.002 L 240.2 15.302 L 214.8 15.302 Z M 214.8 41.702 L 214.8 26.402 L 235.5 26.402 L 235.5 41.702 L 214.8 41.702 Z" vector-effect="non-scaling-stroke"/></g></svg>
